<svg width="773" height="658" viewBox="0 0 773 658" fill="none" xmlns="http://www.w3.org/2000/svg">
<g clip-path="url(#clip0_110:4)">
<circle cx="70.5" cy="216.5" r="37.5" fill="#52566A"/>
<path d="M456.5 167L498.502 239.75H414.498L456.5 167Z" fill="#FDFDFD"/>
<rect x="351" y="580" width="65" height="65" fill="#FDFDFD"/>
<circle cx="638" cy="210" r="35" fill="#FDFDFD"/>
<path d="M236 505L272.373 568H199.627L236 505Z" fill="#52566A"/>
<path d="M273 50C273 59.3888 265.389 67 256 67C246.611 67 239 59.3888 239 50C239 40.6112 246.611 33 256 33C265.389 33 273 40.6112 273 50Z" fill="#52566A"/>
<path d="M737 505L753.454 533.5H720.546L737 505Z" fill="#52566A"/>
<rect x="474" y="19" width="31" height="31" fill="#52566A"/>
<circle cx="193.5" cy="634.5" r="7.5" fill="#52566A"/>
<rect x="49" y="389" width="68" height="68" fill="#FDFDFD"/>
<circle cx="379" cy="97" r="47" fill="#52566A"/>
<path d="M672.5 310L712.77 379.75H632.23L672.5 310Z" fill="#52566A"/>
<rect x="524" y="532" width="70" height="70" fill="#52566A"/>
<line x1="176" y1="108" x2="226.04" y2="108" stroke="#FDFDFD" stroke-width="4"/>
<line x1="176" y1="121" x2="226.04" y2="121" stroke="#FDFDFD" stroke-width="4"/>
<line x1="176" y1="134" x2="226.04" y2="134" stroke="#FDFDFD" stroke-width="4"/>
<line x1="49" y1="310" x2="99.04" y2="310" stroke="#52566A" stroke-width="4"/>
<line x1="49" y1="323" x2="99.04" y2="323" stroke="#52566A" stroke-width="4"/>
<line x1="49" y1="336" x2="99.04" y2="336" stroke="#52566A" stroke-width="4"/>
<line x1="673" y1="599" x2="756.04" y2="599" stroke="#FDFDFD" stroke-width="6"/>
<line x1="673" y1="619" x2="756.04" y2="619" stroke="#FDFDFD" stroke-width="6"/>
<line x1="673" y1="639" x2="756.04" y2="639" stroke="#FDFDFD" stroke-width="6"/>
<path d="M71 542L132.488 648.5H9.5122L71 542Z" fill="#FDFDFD"/>
<rect x="7" y="7" width="101" height="101" fill="#FDFDFD"/>
<circle cx="746.5" cy="238.5" r="9.5" fill="#52566A"/>
<line x1="578" y1="453" x2="628.04" y2="453" stroke="#52566A" stroke-width="4"/>
<line x1="578" y1="466" x2="628.04" y2="466" stroke="#52566A" stroke-width="4"/>
<line x1="578" y1="479" x2="628.04" y2="479" stroke="#52566A" stroke-width="4"/>
<line x1="337" y1="543.04" x2="337" y2="493" stroke="#52566A" stroke-width="4"/>
<line x1="357" y1="543.06" x2="357" y2="493.02" stroke="#52566A" stroke-width="4"/>
<line x1="377" y1="543.06" x2="377" y2="493.02" stroke="#52566A" stroke-width="4"/>
<line x1="552" y1="123.04" x2="552" y2="73" stroke="#52566A" stroke-width="4"/>
<line x1="572" y1="123.06" x2="572" y2="73.02" stroke="#52566A" stroke-width="4"/>
<line x1="592" y1="123.06" x2="592" y2="73.02" stroke="#52566A" stroke-width="4"/>
<line x1="564" y1="338" x2="564" y2="302" stroke="#FDFDFD" stroke-width="2"/>
<line x1="579" y1="338" x2="579" y2="302" stroke="#FDFDFD" stroke-width="2"/>
<line x1="593" y1="338" x2="593" y2="302" stroke="#FDFDFD" stroke-width="2"/>
<circle cx="188" cy="199" r="11" fill="#52566A"/>
<path d="M425.5 329L437.191 349.25H413.809L425.5 329Z" fill="#52566A"/>
<circle cx="224.5" cy="316.5" r="11.5" fill="#FDFDFD"/>
<path d="M225.5 377L237.191 397.25H213.809L225.5 377Z" fill="#52566A"/>
<circle cx="703" cy="57" r="53" fill="#FDFDFD"/>
</g>
<defs>
<clipPath id="clip0_110:4">
<rect width="773" height="658" fill="white"/>
</clipPath>
</defs>
</svg>
